@startuml

left to right direction
skinparam PackageStyle rectangle
skinparam ClassAttributeIconSize 0

package Client {}

interface IHandler {
    + handle(payload)
}

class Successor1 {
    + handle(payload)
}

class Successor2 {
    + handle(payload)
}

Client -> IHandler

IHandler <|-[dashed]- Successor1
IHandler <---o Successor1
IHandler <|-[dashed]- Successor2

IHandler <---o Successor2